<?xml version="1.0" encoding="UTF-8" standalone="no"?>
<!-- Created with Inkscape (http://www.inkscape.org/) -->

<svg
   xmlns:dc="http://purl.org/dc/elements/1.1/"
   xmlns:cc="http://creativecommons.org/ns#"
   xmlns:rdf="http://www.w3.org/1999/02/22-rdf-syntax-ns#"
   xmlns:svg="http://www.w3.org/2000/svg"
   xmlns="http://www.w3.org/2000/svg"
   xmlns:sodipodi="http://sodipodi.sourceforge.net/DTD/sodipodi-0.dtd"
   xmlns:inkscape="http://www.inkscape.org/namespaces/inkscape"
   width="28.434563mm"
   height="14.282542mm"
   viewBox="0 0 100.7524 50.607433"
   id="svg8727"
   version="1.1"
   inkscape:version="0.91 r"
   sodipodi:docname="ArdunioLOgo.svg">
  <defs
     id="defs8729" />
  <sodipodi:namedview
     id="base"
     pagecolor="#ffffff"
     bordercolor="#666666"
     borderopacity="1.0"
     inkscape:pageopacity="0.0"
     inkscape:pageshadow="2"
     inkscape:zoom="8.0000002"
     inkscape:cx="58.783218"
     inkscape:cy="31.894268"
     inkscape:document-units="px"
     inkscape:current-layer="layer1"
     showgrid="false"
     fit-margin-top="0"
     fit-margin-left="0"
     fit-margin-right="0"
     fit-margin-bottom="0"
     showguides="true"
     inkscape:guide-bbox="true"
     inkscape:window-width="1301"
     inkscape:window-height="744"
     inkscape:window-x="65"
     inkscape:window-y="24"
     inkscape:window-maximized="1">
    <sodipodi:guide
       position="74.632628,50.392347"
       orientation="0,1"
       id="guide12590" />
    <sodipodi:guide
       position="83.882629,-0.35765434"
       orientation="0,1"
       id="guide12592" />
  </sodipodi:namedview>
  <metadata
     id="metadata8732">
    <rdf:RDF>
      <cc:Work
         rdf:about="">
        <dc:format>image/svg+xml</dc:format>
        <dc:type
           rdf:resource="http://purl.org/dc/dcmitype/StillImage" />
        <dc:title></dc:title>
      </cc:Work>
    </rdf:RDF>
  </metadata>
  <g
     inkscape:label="Capa 1"
     inkscape:groupmode="layer"
     id="layer1"
     transform="translate(77.578927,-332.69833)"
     style="display:inline">
    <g
       id="g12594">
      <g
         transform="matrix(0.27777836,0,0,0.27777836,-2.6135242,220.3632)"
         id="g8249">
        <g
           id="g8215"
           transform="translate(-0.07922333,0.59384807)">
          <path
             sodipodi:nodetypes="ccccc"
             inkscape:connector-curvature="0"
             id="path9398"
             d="m 27.053571,32.410721 2.857143,3.571429 C 22.767857,43.005959 6.0892852,61.261912 5.625,92.053579 l -4.2857143,0 C 0.75892784,78.294651 7.0535704,49.464292 27.053571,32.410721 Z"
             style="opacity:1;fill:#e5ad24;fill-opacity:1;fill-rule:evenodd;stroke:none;stroke-width:1px;stroke-linecap:butt;stroke-linejoin:miter;stroke-opacity:1"
             transform="translate(-266.83279,403.41132)" />
          <path
             sodipodi:nodetypes="ccscccczc"
             inkscape:connector-curvature="0"
             id="path9400"
             d="M -0.30577018,91.89019 8.0442372,91.663798 c 1.0732865,31.988172 11.8214768,47.756172 33.4055958,63.818652 17.175857,12.78194 39.95449,14.57084 58.421339,12.52949 l 1.238798,7.11124 C 79.368851,178.17159 54.821203,176.80615 27.504993,153.06756 11.956317,137.64422 8.0608599,131.77879 2.7963319,112.05889 1.7189319,107.12891 0.55105691,100.7336 0.11450785,97.357128 -0.32204121,93.98066 -0.30577018,91.89019 -0.30577018,91.89019 Z"
             style="opacity:1;fill:#62aeb2;fill-opacity:1;fill-rule:evenodd;stroke:none;stroke-width:0.90000004;stroke-linecap:butt;stroke-linejoin:miter;stroke-miterlimit:4;stroke-dasharray:none;stroke-opacity:1"
             transform="translate(-266.83279,403.41132)" />
          <path
             sodipodi:nodetypes="ccssscscczzc"
             inkscape:connector-curvature="0"
             id="path9402"
             d="m 9.8214286,80.178578 10.9821434,2.767858 c 0,0 4.189322,-18.891788 10.535714,-26.428572 6.558986,-7.789254 13.81811,-15.578649 22.857143,-20.267857 17.621669,-9.141649 25.190387,-8.358519 35.535714,-8.392857 10.345327,-0.03434 19.910717,3.75 19.910717,3.75 l 1.8425,-6.654959 c 0.38573,-1.393226 -18.208598,-4.226665 -24.536393,-3.188134 l -0.04782,-5.06948 c -5.466549,0.307664 -22.725055,0.494932 -43.954718,13.93043 -21.229663,13.435498 -23.823189,24.15041 -28.482143,33.928571 -4.6589537,9.778161 -4.6428574,15.625 -4.6428574,15.625 z"
             style="opacity:1;fill:#e47128;fill-opacity:1;fill-rule:evenodd;stroke:none;stroke-width:1px;stroke-linecap:butt;stroke-linejoin:miter;stroke-opacity:1"
             transform="translate(-266.83279,403.41132)" />
          <path
             sodipodi:nodetypes="ccccc"
             inkscape:connector-curvature="0"
             id="path9404"
             d="m 100.33599,167.1698 c 0.14443,2.46097 0.53439,5.79248 0.9132,8.27577 18.36473,-2.5169 61.79465,-20.67728 79.89153,-58.55132 -2.14658,-2.8621 -2.64361,-4.78399 -4.79019,-7.64608 -17.93625,34.94927 -56.02472,57.0795 -76.01454,57.92163 z"
             style="fill:none;fill-opacity:1;fill-rule:evenodd;stroke:none;stroke-width:1px;stroke-linecap:butt;stroke-linejoin:miter;stroke-opacity:1"
             transform="translate(-266.83279,403.41132)" />
          <path
             style="opacity:1;fill:#e5ad24;fill-opacity:1;fill-rule:evenodd;stroke:none;stroke-width:1px;stroke-linecap:butt;stroke-linejoin:miter;stroke-opacity:1"
             d="m 101.09863,175.11801 -1.232447,-7.14135 c 19.947657,-4.08118 28.140017,-7.80448 45.223477,-21.73953 14.53707,-11.85793 24.05695,-26.70384 32.31002,-38.07572 l 4.5886,8.31071 c -15.03799,25.20007 -38.06548,54.35427 -76.03229,58.15911 z"
             id="path9406"
             inkscape:connector-curvature="0"
             sodipodi:nodetypes="ccsccsc"
             transform="translate(-266.83279,403.41132)" />
          <path
             sodipodi:nodetypes="czcczcc"
             inkscape:connector-curvature="0"
             id="path9408"
             d="m 12.756349,80.868069 c -2.209709,27.421431 4.060588,37.403061 8.15381,44.653011 4.093222,7.24995 14.275875,20.28507 27.43354,27.68141 l 3.515937,-5.1704 C 42.445421,142.02131 32.846976,133.92075 25.920284,121.8647 18.993592,109.80865 17.468809,93.459742 18.944849,82.4809 Z"
             style="opacity:1;fill:#62aeb2;fill-opacity:1;fill-rule:evenodd;stroke:none;stroke-width:0.50000006;stroke-linecap:butt;stroke-linejoin:miter;stroke-miterlimit:4;stroke-dasharray:none;stroke-opacity:1"
             transform="translate(-266.83279,403.41132)" />
          <path
             style="opacity:1;fill:#e5ad24;fill-opacity:1;fill-rule:evenodd;stroke:none;stroke-width:1px;stroke-linecap:butt;stroke-linejoin:miter;stroke-opacity:1"
             d="m 121.80637,39.735837 -3.14901,6.253909 C 102.0377,34.81572 69.475683,32.361666 45.956718,54.060684 L 41.942621,49.588029 C 63.056169,26.950808 96.473575,25.384189 121.80637,39.735837 Z"
             id="path9410"
             inkscape:connector-curvature="0"
             sodipodi:nodetypes="ccccc"
             transform="translate(-266.83279,403.41132)" />
          <path
             sodipodi:nodetypes="cazccscc"
             inkscape:connector-curvature="0"
             id="path9414"
             d="m 21.643197,157.10588 c 10.902919,11.80212 35.350461,22.69736 55.512351,24.95667 20.079183,2.25004 44.211842,-2.92611 59.414612,-12.00127 15.20278,-9.07516 17.4477,-11.66842 17.4477,-11.66842 l -4.00558,-5.30692 c -33.69048,23.33334 -54.242058,24.43924 -76.763396,22.23215 -7.286522,-0.71408 -27.72663,-6.22456 -46.868128,-23.40703 z"
             style="fill:#00878f;fill-opacity:1;fill-rule:evenodd;stroke:none;stroke-width:1px;stroke-linecap:butt;stroke-linejoin:miter;stroke-opacity:1"
             transform="translate(-266.83279,403.41132)" />
          <path
             sodipodi:nodetypes="ccccc"
             inkscape:connector-curvature="0"
             id="path9416"
             d="m 119.62568,143.99619 c 7.79762,-4.61309 33.78523,-22.65919 48.70591,-52.261458 1.25,2.232143 2.62308,4.44711 3.87308,6.679253 -13.37031,26.382715 -36.64051,43.118325 -49.18296,50.808605 -1.33929,-1.875 -2.05674,-3.3514 -3.39603,-5.2264 z"
             style="fill:#e5ad24;fill-opacity:1;fill-rule:evenodd;stroke:none;stroke-width:1px;stroke-linecap:butt;stroke-linejoin:miter;stroke-opacity:1"
             transform="translate(-266.83279,403.41132)" />
          <path
             style="fill:#62aeb2;fill-opacity:1;fill-rule:evenodd;stroke:none;stroke-width:1px;stroke-linecap:butt;stroke-linejoin:miter;stroke-opacity:1"
             d="m 119.15714,138.00243 c 6.63981,-3.61968 27.56086,-19.98962 40.01353,-40.944365 1.06439,1.751464 1.78601,3.889235 2.85041,5.640695 -13.1528,20.44882 -27.0355,31.07081 -39.60963,40.07236 -1.14043,-1.47123 -2.11389,-3.29745 -3.25431,-4.76869 z"
             id="path9418"
             inkscape:connector-curvature="0"
             sodipodi:nodetypes="ccccc"
             transform="translate(-266.83279,403.41132)" />
          <path
             sodipodi:nodetypes="ccccscccccsccssccsccscccccccccccccccscscccccccccccsccsccssccscccc"
             inkscape:connector-curvature="0"
             id="path9426"
             transform="translate(-258.18214,209.24602)"
             d="m 78.364628,206.47825 -0.120487,9.75222 c 8.454562,-0.84615 24.496089,2.73437 24.496089,2.73437 l -2.58593,9.85547 c 0,0 8.94672,2.87693 12.79297,5.03516 24.7938,13.91245 38.5789,37.14961 50.49414,58.9082 -15.02186,28.90558 -41.25919,45.97574 -49.10547,50.62305 l -3.03125,-4.98047 2.46289,-1.45313 -3.0625,-4.89257 C 97.910978,340.46228 69.569213,344.84512 50.800781,333.41406 32.032349,321.983 25.394531,307.25 25.394531,307.25 l -5.382812,2.24023 c 0,0 -4.807144,-14.38867 -4.417969,-22.66601 0.441174,-9.38332 1.560001,-17.83947 5.554688,-26.13672 8.658456,-17.98425 26.421875,-28.22266 26.421874,-28.22266 l -1.560546,-2.3789 c 0,0 -17.151608,9.00098 -25.976563,24.15625 -4.020818,6.90502 -7.976562,22.82226 -7.976562,22.82226 l -1.871094,-0.4375 c -0.8968025,9.80232 -2.3973573,19.18106 5.740234,36.98243 8.272086,18.09555 27.152344,28.61132 27.152344,28.61132 L 45.125,338.89062 c 0,10e-6 24.036093,13.23872 44.398438,8.22852 0.320256,2.90589 0.61141,5.81108 0.929687,8.7168 -6.772812,1.44989 -36.25453,6.85908 -65.085937,-19.50586 -1.071429,1.33929 -2.38365,3.00642 -3.455079,4.3457 12.632614,11.36883 30.217083,26.35705 69.324219,21.50586 0.01253,-0.0152 0.02107,-0.0315 0.0332,-0.0469 0.170767,-0.027 19.006822,-3.01442 28.578132,-9.7793 0.003,0.004 0.007,0.01 0.01,0.0137 26.52624,-15.14675 43.05449,-40.99762 48.80664,-50.05469 7.70055,14.04462 15.16689,26.7303 25.09375,34.82813 l 6.0625,-6.43946 c 28.49678,25.47729 48.04492,24.4961 48.04492,24.4961 l 0.31446,-9.72266 c -22.14921,-2.21475 -41.85628,-18.2687 -53.42774,-32.80859 -3.94934,-4.96248 -6.96823,-9.16307 -9.41992,-12.88477 6.0191,-14.03189 14.42428,-26.70698 21.82031,-34.18945 21.39603,-21.64607 37.40519,-24.65128 41.02735,-24.62109 l -0.79492,-6.67969 c 0,0 -7.75532,0.15272 -19.78516,7.55078 l -1.79102,-2.68359 c -21.16029,13.06251 -32.41716,27.33352 -45.68359,51.92382 -1.70848,-3.23314 -2.94119,-6.03984 -4.01758,-8.66015 0.15253,-0.25492 20.26258,-33.82464 39.11719,-45.09571 l 1.64062,1.70313 4.04102,-2.9043 c 24.14566,-15.38483 46.98047,-9.81054 46.98047,-9.81054 0,0 -0.30252,1.60371 -0.38672,2.36132 0,0 13.70872,1.47451 26.58008,9.84961 13.76914,8.95928 21.39164,24.16884 22.85351,31.0625 l 2.96875,-1.01172 c 0,10e-6 2.39354,5.41582 2.65039,13.38477 0.15719,4.8768 -1.02539,15.97852 -1.02539,15.97852 l 5.10352,0.60742 c 0,0 2.12429,-19.67344 -0.75781,-29.13867 -4.92659,-16.17964 -14.9412,-28.15297 -27.31055,-37.57618 -21.05928,-16.04336 -51.39258,-11.36328 -51.39258,-11.36328 l -0.75781,-9.89258 c 0,0 -27.30543,1.56324 -52.14844,26.8125 -9.06685,9.21513 -24.48354,30.35173 -24.73828,30.70118 -0.004,-0.006 -0.006,-0.0116 -0.01,-0.0176 -21.8581,-33.91718 -40.58515,-45.53247 -40.58515,-45.53247 0,0 -28.09812,-18.12476 -50.565852,-16.06348 z"
             style="fill:#00878f;fill-opacity:1;fill-rule:evenodd;stroke:none;stroke-width:1px;stroke-linecap:butt;stroke-linejoin:miter;stroke-opacity:1" />
          <path
             sodipodi:nodetypes="czccsccsccscc"
             inkscape:connector-curvature="0"
             id="path8087"
             d="m 34.065673,113.10968 c 0,0 -4.143832,-8.87789 -4.094363,-19.533175 0.04947,-10.65529 2.880449,-20.094362 2.880449,-20.094362 l 6.333837,2.552303 c 0,0 14.885429,-34.867634 49.749321,-32.30611 33.182233,2.437969 49.145443,24.887736 49.145443,24.887736 l 5.08928,-4.999999 c 0,0 -24.169,-26.862674 -56.116068,-26.562501 -25.529343,0.239873 -40.892858,16.696429 -40.892858,16.696429 l -4.107143,-4.285715 c 0,0 -8.407574,6.318307 -15.267856,24.017858 -5.026748,12.969026 -4.126771,27.675336 1.787956,41.865746 z"
             style="opacity:1;fill:#62aeb2;fill-opacity:1;fill-rule:evenodd;stroke:none;stroke-width:1px;stroke-linecap:butt;stroke-linejoin:miter;stroke-opacity:1"
             transform="translate(-266.83279,403.41132)" />
          <path
             sodipodi:nodetypes="ccscczccc"
             inkscape:connector-curvature="0"
             id="path8090"
             d="m 152.26934,156.06895 c 0,0 18.46487,-17.26261 23.47554,-24.59698 0,0 16.88279,21.90741 28.30594,28.99408 14.70356,9.12177 23.04921,15.76567 49.05553,20.77126 l 0.48341,-6.79872 c -25.82,-4.28155 -39.59463,-15.97173 -47.01356,-20.79107 -7.41893,-4.81934 -28.80018,-30.69422 -28.80018,-30.69422 -4.16887,7.35495 -27.777,30.12281 -27.777,30.12281 z"
             style="opacity:1;fill:#e47128;fill-opacity:1;fill-rule:evenodd;stroke:none;stroke-width:1px;stroke-linecap:butt;stroke-linejoin:miter;stroke-opacity:1"
             transform="translate(-266.83279,403.41132)" />
          <path
             sodipodi:nodetypes="ccccc"
             inkscape:connector-curvature="0"
             id="path8092"
             d="m 201.25,143.82397 7.24746,-7.33226 c 31.32285,27.36497 48.83098,24.30005 60.55738,25.15876 l 0.40945,10.13524 c -13.63095,1.13095 -49.94048,-5.52126 -68.21429,-27.96174 z"
             style="opacity:1;fill:#62aeb2;fill-opacity:1;fill-rule:evenodd;stroke:none;stroke-width:1px;stroke-linecap:butt;stroke-linejoin:miter;stroke-opacity:1"
             transform="translate(-266.83279,403.41132)" />
          <path
             sodipodi:nodetypes="ccccc"
             inkscape:connector-curvature="0"
             id="path8094"
             d="m 256.81686,151.36894 c 4.79889,0.48041 9.91345,0.38208 15.28055,0.15524 l -0.0532,6.69192 c -5.82435,0.29483 -10.03878,0.10748 -15.42119,-0.24064 z"
             style="opacity:1;fill:#e5ad24;fill-opacity:1;fill-rule:evenodd;stroke:none;stroke-width:1px;stroke-linecap:butt;stroke-linejoin:miter;stroke-opacity:1"
             transform="translate(-266.83279,403.41132)" />
          <path
             sodipodi:nodetypes="ccccc"
             inkscape:connector-curvature="0"
             id="path8096"
             d="m 199.375,94.464286 c 20.50157,31.825754 47.48665,47.018344 68.11602,45.714284 l -0.52673,7.67857 c -22.32143,0.11905 -51.69643,-14.94047 -71.33929,-46.24999 z"
             style="opacity:1;fill:#62aeb2;fill-opacity:1;fill-rule:evenodd;stroke:none;stroke-width:1px;stroke-linecap:butt;stroke-linejoin:miter;stroke-opacity:1"
             transform="translate(-266.83279,403.41132)" />
          <path
             sodipodi:nodetypes="ccccc"
             inkscape:connector-curvature="0"
             id="path8098"
             d="m 184.70549,88.224822 c 11.53258,-18.014387 24.29087,-35.855619 39.16957,-45.15744 l 4.92449,5.587406 c -12.71108,9.133462 -25.32729,21.064729 -40.04262,48.35022 -1.51095,-2.953474 -3.03242,-5.908701 -4.05144,-8.780186 z"
             style="opacity:1;fill:#e5ad24;fill-opacity:1;fill-rule:evenodd;stroke:none;stroke-width:1px;stroke-linecap:butt;stroke-linejoin:miter;stroke-opacity:1"
             transform="translate(-266.83279,403.41132)" />
          <path
             sodipodi:nodetypes="ccsccsc"
             inkscape:connector-curvature="0"
             id="path8100"
             d="m 256.81551,46.786869 -1.27978,-11.814636 c 18.5256,-3.960344 39.82955,2.823399 51.29811,12.419864 19.31663,16.163438 23.52813,36.032792 20.26169,58.351633 l -12.23912,-2.61467 c 3.11464,-12.963624 2.41528,-29.866923 -13.92024,-45.620119 -6.18808,-5.967497 -21.85522,-14.552234 -44.12066,-10.722072 z"
             style="opacity:1;fill:#e47128;fill-opacity:1;fill-rule:evenodd;stroke:none;stroke-width:1px;stroke-linecap:butt;stroke-linejoin:miter;stroke-opacity:1"
             transform="translate(-266.83279,403.41132)" />
          <path
             sodipodi:nodetypes="czcczcc"
             inkscape:connector-curvature="0"
             id="path8102"
             d="M 175.42027,49.853925 C 184.7456,38.876269 194.41937,26.115727 207.5,17.678571 220.58063,9.2414148 238.2332,3.5552013 252.45939,0.4004397 c 0.16214,3.5356761 0.72929,4.6678686 0.81517,7.3093818 -11.70805,2.1698981 -29.67043,8.2145645 -42.20313,16.3973215 -12.5327,8.182757 -23.00595,21.160715 -31.25,31.696429 z"
             style="opacity:1;fill:#00878f;fill-opacity:1;fill-rule:evenodd;stroke:none;stroke-width:1px;stroke-linecap:butt;stroke-linejoin:miter;stroke-opacity:1"
             transform="translate(-266.83279,403.41132)" />
          <path
             sodipodi:nodetypes="czcczcc"
             inkscape:connector-curvature="0"
             id="path8127"
             d="m 255.30469,19.608259 c 29.09302,-2.365934 45.30403,4.182997 60.54484,15.970783 15.24081,11.787786 26.98157,32.5197 27.36476,56.206673 -2.78679,-0.140712 -5.5448,0.01761 -7.32143,0.0032 1.33983,-16.86778 -7.80408,-37.312434 -25.17857,-51.074602 C 293.3398,26.952118 280.02779,25.203515 255.80357,26.383928 Z"
             style="opacity:1;fill:#e5ad24;fill-opacity:1;fill-rule:evenodd;stroke:none;stroke-width:1px;stroke-linecap:butt;stroke-linejoin:miter;stroke-opacity:1"
             transform="translate(-266.83279,403.41132)" />
          <path
             sodipodi:nodetypes="czcczcc"
             inkscape:connector-curvature="0"
             id="path8129"
             d="M 252.82231,4.0296472 C 268.7743,2.3460595 276.3469,2.0281516 291.76876,6.0942994 307.19062,10.160447 322.84897,19.21305 331.83511,28.199199 L 327.6051,32.11354 C 318.59791,23.695602 301.45167,13.271162 290.50607,11.145061 279.56047,9.0189608 270.90453,6.8896304 253.35313,9.4150122 c -0.0773,0.01546 -0.38716,-2.8192498 -0.53082,-5.385365 z"
             style="opacity:1;fill:#e47128;fill-opacity:1;fill-rule:evenodd;stroke:none;stroke-width:1px;stroke-linecap:butt;stroke-linejoin:miter;stroke-opacity:1"
             transform="translate(-266.83279,403.41132)" />
          <path
             sodipodi:nodetypes="czcczcc"
             inkscape:connector-curvature="0"
             id="path8131"
             d="m 332.6371,27.510832 c 13.00157,12.361253 15.74196,19.09631 20.99561,31.365437 5.25365,12.269127 6.74786,24.529065 5.88203,41.102064 l -7.23478,-0.757615 C 352.75615,87.137386 351.05359,70.410309 346.3023,60.073967 341.55101,49.737625 336.92818,41.3871 326.68111,32.972579 Z"
             style="opacity:1;fill:#62aeb2;fill-opacity:1;fill-rule:evenodd;stroke:none;stroke-width:1px;stroke-linecap:butt;stroke-linejoin:miter;stroke-opacity:1"
             transform="translate(-266.83279,403.41132)" />
          <path
             sodipodi:nodetypes="ccsscscccccczccccc"
             inkscape:connector-curvature="0"
             id="path8133"
             d="m 151.20721,24.916203 c 12.54273,10.354064 22.01878,20.782094 28.58462,30.852981 9.52883,-12.402228 17.3722,-22.602662 32.75599,-32.636067 7.76608,-5.065084 17.70112,-9.227623 27.14507,-12.341505 3.1905,-1.0519806 13.54295,-3.1437055 13.54295,-3.1437055 l 0.14179,1.7715796 c 0,0 9.48873,-1.6837076 13.61352,-1.4837814 l 0.34214,4.9173153 c 11.36421,-0.631346 20.26432,2.020306 31.54559,5.244653 l -1.51522,6.550208 c -8.76874,-3.720451 -23.74277,-6.801432 -42.16303,-4.947937 l -0.14887,-3.265138 c -7.83889,1.677242 -23.52485,5.663906 -38.09087,15.241279 -14.56602,9.577373 -26.92594,26.406793 -38.79523,42.358785 l -5.93465,-9.47018 2.65166,-3.093592 C 166.38055,50.191061 159.47211,40.204353 146.67684,30.692083 Z"
             style="opacity:1;fill:#62aeb2;fill-opacity:1;fill-rule:evenodd;stroke:none;stroke-width:1px;stroke-linecap:butt;stroke-linejoin:miter;stroke-opacity:1"
             transform="translate(-266.83279,403.41132)" />
          <g
             id="g8303">
            <g
               id="g8308">
              <rect
                 y="465.93671"
                 x="-188.82005"
                 height="57.831234"
                 width="19.950512"
                 id="rect9338"
                 style="opacity:1;fill:#e5ad24;fill-opacity:1;stroke:none;stroke-width:0.2;stroke-linecap:butt;stroke-linejoin:round;stroke-miterlimit:4;stroke-dasharray:none;stroke-dashoffset:0;stroke-opacity:1" />
              <rect
                 y="485.06567"
                 x="-206.95947"
                 height="19.319201"
                 width="56.31601"
                 id="rect9340"
                 style="opacity:1;fill:#00878f;fill-opacity:1;stroke:none;stroke-width:0.2;stroke-linecap:butt;stroke-linejoin:round;stroke-miterlimit:4;stroke-dasharray:none;stroke-dashoffset:0;stroke-opacity:1" />
            </g>
          </g>
          <path
             sodipodi:nodetypes="ccccc"
             inkscape:connector-curvature="0"
             id="path9351"
             d="m -261.20031,524.70529 c -2.67858,1.13096 -5.91678,1.75777 -8.59535,2.88872 5.64251,13.12237 12.41564,23.92462 23.49167,34.09816 l 6.02678,-6.34246 c -6.16881,-5.98696 -17.24904,-18.1488 -20.9231,-30.64442 z"
             style="opacity:1;fill:#e5ad24;fill-opacity:1;fill-rule:evenodd;stroke:none;stroke-width:1px;stroke-linecap:butt;stroke-linejoin:miter;stroke-opacity:1" />
          <path
             sodipodi:nodetypes="ccccc"
             inkscape:connector-curvature="0"
             id="path9384"
             d="m -128.86929,471.86869 5.17704,-4.92449 c 8.98615,9.40704 16.7096,22.03395 22.60216,33.33503 l -3.73642,5.91166 c -6.37659,-12.64795 -15.01454,-24.95725 -24.04278,-34.3222 z"
             style="opacity:1;fill:#e47128;fill-opacity:1;fill-rule:evenodd;stroke:none;stroke-width:1px;stroke-linecap:butt;stroke-linejoin:miter;stroke-opacity:1" />
          <path
             sodipodi:nodetypes="ccsccsc"
             inkscape:connector-curvature="0"
             id="path9412"
             d="m -227.72565,426.0899 -3.83928,-4.64286 c 0,0 25.74319,-14.35643 50.26786,-15.53572 35.94551,-1.72847 65.30391,23.09527 65.30391,23.09527 l -3.65617,4.76458 c 0,0 -28.23723,-22.65238 -56.58429,-22.35849 -23.98294,0.24865 -51.49203,14.67722 -51.49203,14.67722 z"
             style="opacity:1;fill:#00878f;fill-opacity:1;fill-rule:evenodd;stroke:none;stroke-width:1px;stroke-linecap:butt;stroke-linejoin:miter;stroke-opacity:1" />
          <g
             id="g8297" />
        </g>
      </g>
    </g>
  </g>
</svg>
